<svg width="24" height="24" viewBox="0 0 24 24" fill="none" xmlns="http://www.w3.org/2000/svg">
    <path d="M9.05184 15.444C6.10518 15.1297 3.90095 12.5939 4.00001 9.63219C4.01685 8.5396 4.4135 7.48694 5.12187 6.65492L5.19401 3.97409C5.20264 3.65308 5.36491 3.35575 5.63021 3.17482C5.89551 2.99389 6.23156 2.95137 6.53357 3.06053L9.41101 4.10058C11.111 3.6767 12.8892 3.67718 14.589 4.10196L17.4665 3.06196C17.7685 2.9528 18.1045 2.99532 18.3698 3.17625C18.6351 3.35717 18.7974 3.6545 18.806 3.97551L18.8781 6.65496C19.5859 7.4873 19.9825 8.53973 20 9.63219C20.0991 12.5939 17.8948 15.1297 14.9482 15.4439" stroke="#323232" stroke-width="1.5" stroke-linecap="round" stroke-linejoin="round"/>
    <path d="M8.05185 20.9997V18.8655C8.07876 17.6567 8.42367 16.4764 9.05185 15.4434" stroke="#323232" stroke-width="1.5" stroke-linecap="round" stroke-linejoin="round"/>
    <path d="M14.9482 15.4434C15.6089 16.5299 15.9717 17.7714 16 19.0428V20.9997" stroke="#323232" stroke-width="1.5" stroke-linecap="round" stroke-linejoin="round"/>
    <path d="M3 16.5654C3 18.2223 4.34315 19.5654 6 19.5654H8.05183" stroke="#323232" stroke-width="1.5" stroke-linecap="round" stroke-linejoin="round"/>
</svg>
